<svg width="32px" height="32px" viewBox="0 0 256 256" version="1.1" xmlns:xlink="http://www.w3.org/1999/xlink" xmlns="http://www.w3.org/2000/svg">
  <defs>
    <path d="M256 0L256 0L256 256L0 256L0 0L256 0Z" id="path_1" />
    <clipPath id="clip_1">
      <use xlink:href="#path_1" />
    </clipPath>
  </defs>
  <g id="Frame 2" clip-path="url(#clip_1)">
    <path d="M256 0L256 0L256 256L0 256L0 0L256 0Z" id="Frame-2" fill="none" stroke="none" />
    <path d="M53 75L53 49L203 49L203 75L53 75ZM53 119L53 93L203 93L203 119L53 119ZM53 163L53 137L203 137L203 163L53 163ZM53 207L53 181L203 181L203 207L53 207Z" id="Rectangle-Union" fill-rule="evenodd" stroke="none" />
  </g>
</svg>